<svg width="132" height="32" viewBox="0 0 132 32" fill="none" xmlns="http://www.w3.org/2000/svg">
<path d="M4.13203 31.7698L0.824014 0.964963H6.84495L8.54272 20.4105L10.2755 0.964963H16.0164L17.6616 20.4105L19.3069 0.964963H25.3979L22.0373 31.7698H14.6512L13.1109 16.945L11.6407 31.7698H4.13203ZM27.3393 31.7698L30.3147 0.964963H40.7639L43.6868 31.7698H37.8584L37.4208 26.799H33.7103L33.3252 31.7698H27.3393ZM34.1478 21.8807H36.9483L35.6005 6.21578H35.3205L34.1478 21.8807ZM46.2058 31.7698V26.1689L53.2594 6.63585H46.8884V0.964963H59.7529V6.3558L52.5768 26.0989H59.4554V31.7698H46.2058ZM62.3069 31.7698L65.2824 0.964963H75.7315L78.6545 31.7698H72.8261L72.3885 26.799H68.6779L68.2929 31.7698H62.3069ZM69.1155 21.8807H71.9159L70.5682 6.21578H70.2882L69.1155 21.8807ZM81.9786 31.7698V0.964963H94.3005V6.9684H88.1746V11.8692H93.9855V17.8026H88.1746V31.7698H81.9786ZM97.7297 31.7698V0.964963H104.066L106.901 15.7198V0.964963H112.852V31.7698H106.831L103.751 16.3674V31.7698H97.7297ZM120.744 31.7698V21.6357L115.826 0.964963H121.935L123.65 11.3966L125.365 0.964963H131.456L126.555 21.6357V31.7698H120.744Z" fill="white"/>
</svg>
