<svg width="131" height="29" viewBox="0 0 131 29" fill="none" xmlns="http://www.w3.org/2000/svg">
<path d="M8.17282 18.4782L9.90559 0.887919H15.6465L17.2917 18.4782L18.937 0.887919H25.028L21.6674 28.7698H14.2813L12.741 15.3277L11.2708 28.7698H3.76213L0.454114 0.887919H6.47505L8.17282 18.4782ZM39.4138 0.887919L42.4943 28.7698H36.5434L36.1058 24.5691H32.9903L32.6052 28.7698H26.6193L29.7698 0.887919H39.4138ZM34.8106 6.12124H34.2505L33.4279 19.4933H35.6332L34.8106 6.12124ZM44.9083 28.7698V23.4664L52.2944 6.29626H45.5909V0.887919H59.138V6.08623L51.6118 23.3964H58.8404V28.7698H44.9083ZM74.3815 0.887919L77.4619 28.7698H71.511L71.0734 24.5691H67.958L67.5729 28.7698H61.587L64.7375 0.887919H74.3815ZM69.7782 6.12124H69.2182L68.3955 19.4933H70.6009L69.7782 6.12124ZM80.8036 28.7698V0.887919H93.1255V6.33127H86.9995V10.742H92.8104V16.1153H86.9995V28.7698H80.8036ZM111.782 0.887919V28.7698H105.761L102.681 14.8201V28.7698H96.6596V0.887919H102.996L105.831 14.225V0.887919H111.782ZM125.17 28.7698H119.359V19.5983L114.441 0.887919H120.549L122.265 10.3394L123.98 0.887919H130.071L125.17 19.5983V28.7698Z" fill="#6A0DAD"/>
</svg>
