<svg width="24" height="24" viewBox="0 0 24 24" fill="none" xmlns="http://www.w3.org/2000/svg">
<path d="M17.2113 0.614688H17.2113C17.9952 0.614644 18.7496 0.914169 19.3199 1.45198C19.8882 1.98776 20.231 2.71968 20.2791 3.49895L20.2847 3.69685V15.9819V16.5966H20.8994H21.8214C22.2936 16.5966 22.6839 16.9523 22.7376 17.4089L22.7435 17.533V19.67V19.6701C22.7435 20.454 22.444 21.2083 21.9062 21.7787C21.3704 22.3469 20.6385 22.6898 19.8592 22.7378L19.6613 22.7435H7.37626H7.37622C6.59228 22.7435 5.83795 22.444 5.26757 21.9062C4.69935 21.3704 4.35649 20.6385 4.30844 19.8592L4.30282 19.6613V7.37626V6.76157H3.68813L1.53672 6.76157L1.53644 6.76157C1.30818 6.76167 1.08799 6.6771 0.918482 6.52422C0.752684 6.37468 0.646907 6.17019 0.620486 5.94882L0.614688 5.82514V3.68813V3.68809C0.614644 2.90415 0.914169 2.14982 1.45198 1.57945C1.98776 1.01123 2.71967 0.668366 3.49895 0.620311L3.69686 0.614688H17.2113ZM6.14688 1.84406H5.53219V2.45875V19.67C5.53219 20.1591 5.72648 20.6281 6.07231 20.974C6.41814 21.3198 6.88718 21.5141 7.37626 21.5141C7.86533 21.5141 8.33438 21.3198 8.68021 20.974C9.02604 20.6281 9.22032 20.1591 9.22032 19.67V17.5186C9.22032 17.0098 9.63357 16.5966 10.1424 16.5966H18.4406H19.0553V15.9819V3.68813C19.0553 3.19905 18.861 2.73001 18.5152 2.38418C18.1694 2.03835 17.7003 1.84406 17.2113 1.84406H6.14688ZM21.5141 18.4406V17.826H20.8994H11.0644H10.4497V18.4406V19.67C10.4497 20.0297 10.3881 20.3752 10.2755 20.6956L9.98782 21.5141H10.8554H19.67C20.1591 21.5141 20.6281 21.3198 20.974 20.974C21.3198 20.6281 21.5141 20.1591 21.5141 19.67V18.4406ZM4.30282 2.45875V1.84398L3.68805 1.84406C3.23637 1.84412 2.80043 2.00995 2.4629 2.31009C2.12537 2.61023 1.90974 3.0238 1.85689 3.47237L1.85482 3.48993L1.85377 3.50758L1.84516 3.65142L1.84406 3.66976V3.68813V4.9175V5.53219H2.45875H3.68813H4.30282V4.9175V2.45875ZM12.2938 11.6791C12.4568 11.6791 12.6131 11.7438 12.7284 11.8591C12.8437 11.9744 12.9085 12.1307 12.9085 12.2938C12.9085 12.4568 12.8437 12.6131 12.7284 12.7284C12.6131 12.8437 12.4568 12.9085 12.2938 12.9085H9.83501C9.67198 12.9085 9.51564 12.8437 9.40036 12.7284C9.28508 12.6131 9.22032 12.4568 9.22032 12.2938C9.22032 12.1307 9.28508 11.9744 9.40036 11.8591C9.51564 11.7438 9.67199 11.6791 9.83501 11.6791H12.2938ZM14.7525 6.76157C14.9155 6.76157 15.0719 6.82633 15.1872 6.94161C15.3024 7.05688 15.3672 7.21323 15.3672 7.37626C15.3672 7.53928 15.3024 7.69563 15.1872 7.81091C15.0719 7.92618 14.9155 7.99095 14.7525 7.99095H9.83501C9.67199 7.99095 9.51564 7.92618 9.40036 7.81091C9.28508 7.69563 9.22032 7.53928 9.22032 7.37626C9.22032 7.21323 9.28508 7.05688 9.40036 6.94161C9.51564 6.82633 9.67198 6.76157 9.83501 6.76157H14.7525Z" fill="#201A23" stroke="#201A23" stroke-width="1.22938"/>
</svg>
