<svg width="24" height="24" viewBox="0 0 24 24" fill="none" xmlns="http://www.w3.org/2000/svg">
<path d="M17.2113 5.72944e-09C18.152 -5.23981e-05 19.0572 0.359378 19.7416 1.00475C20.4261 1.65012 20.8381 2.53265 20.8932 3.47176L20.8994 3.68813V15.9819H21.8214C22.6168 15.9819 23.2721 16.5867 23.3508 17.3612L23.3581 17.5186V19.67C23.3582 20.6108 22.9988 21.5159 22.3534 22.2004C21.708 22.8848 20.8255 23.2968 19.8864 23.352L19.67 23.3581H7.37626C6.43553 23.3582 5.53033 22.9988 4.84588 22.3534C4.16143 21.708 3.74947 20.8255 3.69428 19.8864L3.68813 19.67V7.37626H1.53672C1.15628 7.37643 0.789299 7.23548 0.506791 6.98068C0.224283 6.72587 0.0463334 6.37534 0.00737631 5.9969L5.72944e-09 5.83954V3.68813C-5.23981e-05 2.7474 0.359378 1.8422 1.00475 1.15775C1.65012 0.473301 2.53265 0.0613366 3.47176 0.00614703L3.68813 5.72944e-09H17.2113ZM20.8994 18.4406H9.83501V19.67C9.83501 20.1003 9.76125 20.5146 9.62602 20.8994H19.67C19.9961 20.8994 20.3088 20.7699 20.5393 20.5393C20.7699 20.3088 20.8994 19.9961 20.8994 19.67V18.4406ZM12.2938 11.0644H9.83501C9.52167 11.0647 9.22028 11.1847 8.99243 11.3998C8.76459 11.6149 8.62747 11.9089 8.60911 12.2217C8.59075 12.5345 8.69252 12.8425 8.89363 13.0828C9.09475 13.3231 9.38002 13.4775 9.69117 13.5145L9.83501 13.5231H12.2938C12.6071 13.5228 12.9085 13.4028 13.1363 13.1877C13.3642 12.9726 13.5013 12.6786 13.5197 12.3658C13.538 12.053 13.4363 11.745 13.2351 11.5047C13.034 11.2644 12.7487 11.11 12.4376 11.073L12.2938 11.0644ZM14.7525 6.14688H9.83501C9.50896 6.14688 9.19626 6.2764 8.96571 6.50696C8.73516 6.73751 8.60563 7.05021 8.60563 7.37626C8.60563 7.70231 8.73516 8.015 8.96571 8.24556C9.19626 8.47611 9.50896 8.60563 9.83501 8.60563H14.7525C15.0786 8.60563 15.3913 8.47611 15.6218 8.24556C15.8524 8.015 15.9819 7.70231 15.9819 7.37626C15.9819 7.05021 15.8524 6.73751 15.6218 6.50696C15.3913 6.2764 15.0786 6.14688 14.7525 6.14688ZM3.68813 2.45875C3.36208 2.45875 3.04938 2.58828 2.81883 2.81883C2.58828 3.04938 2.45875 3.36208 2.45875 3.68813V4.9175H3.68813V2.45875Z" fill="black"/>
</svg>
