<svg width="17" height="17" viewBox="0 0 17 17" fill="none" xmlns="http://www.w3.org/2000/svg">
<path d="M1.88889 15.1111H3.23472L12.4667 5.87917L11.1208 4.53333L1.88889 13.7653V15.1111ZM0 17V12.9861L12.4667 0.543056C12.6556 0.369907 12.8643 0.236111 13.0928 0.141667C13.3214 0.0472223 13.5613 0 13.8125 0C14.0637 0 14.3077 0.0472223 14.5444 0.141667C14.7812 0.236111 14.9858 0.377778 15.1583 0.566667L16.4569 1.88889C16.6458 2.06204 16.7837 2.26667 16.8706 2.50278C16.9575 2.73889 17.0006 2.975 17 3.21111C17 3.46296 16.9569 3.70317 16.8706 3.93172C16.7844 4.16028 16.6465 4.36868 16.4569 4.55694L4.01389 17H0ZM11.7819 5.21806L11.1208 4.53333L12.4667 5.87917L11.7819 5.21806Z" fill="#201A23"/>
</svg>
