<svg width="47" height="44" viewBox="0 0 47 44" fill="none" xmlns="http://www.w3.org/2000/svg">
<path d="M46.7601 9.85025V11.3988C46.7601 11.6041 46.6785 11.8011 46.5333 11.9463C46.3881 12.0915 46.1912 12.173 45.9858 12.173H43.663V13.3344C43.663 13.9758 43.143 14.4958 42.5016 14.4958H4.56265C3.92127 14.4958 3.40126 13.9758 3.40126 13.3344V12.173H1.07846C0.873116 12.173 0.676179 12.0915 0.530976 11.9463C0.385773 11.8011 0.304199 11.6041 0.304199 11.3988V9.85025C0.3042 9.69707 0.349637 9.54734 0.43476 9.41999C0.519883 9.29264 0.640867 9.1934 0.782404 9.13483L23.2361 0.617921C23.4257 0.539469 23.6386 0.539469 23.8282 0.617921L46.2819 9.13483C46.4234 9.1934 46.5444 9.29264 46.6295 9.41999C46.7146 9.54734 46.7601 9.69707 46.7601 9.85025ZM44.4373 39.2723H2.62699C1.34413 39.2723 0.304199 40.3122 0.304199 41.5951V43.1436C0.304199 43.349 0.385773 43.5459 0.530976 43.6911C0.676179 43.8363 0.873116 43.9179 1.07846 43.9179H45.9858C46.1912 43.9179 46.3881 43.8363 46.5333 43.6911C46.6785 43.5459 46.7601 43.349 46.7601 43.1436V41.5951C46.7601 40.3122 45.7201 39.2723 44.4373 39.2723ZM8.04685 16.0444V34.6267H4.56265C3.92127 34.6267 3.40126 35.1467 3.40126 35.7881V37.7238H43.663V35.7881C43.663 35.1467 43.143 34.6267 42.5016 34.6267H39.0174V16.0444H32.8233V34.6267H26.6292V16.0444H20.4351V34.6267H14.241V16.0444H8.04685Z" fill="#201A23"/>
</svg>
