<svg width="46" height="52" viewBox="0 0 46 52" fill="none" xmlns="http://www.w3.org/2000/svg">
<path fill-rule="evenodd" clip-rule="evenodd" d="M0 3.7847C0 3.03654 0.297208 2.31902 0.826239 1.78998C1.35527 1.26095 2.07279 0.963745 2.82096 0.963745H42.3143C43.0625 0.963745 43.78 1.26095 44.3091 1.78998C44.8381 2.31902 45.1353 3.03654 45.1353 3.7847C45.1353 4.53286 44.8381 5.25039 44.3091 5.77942C43.78 6.30845 43.0625 6.60566 42.3143 6.60566V46.099C43.0625 46.099 43.78 46.3962 44.3091 46.9253C44.8381 47.4543 45.1353 48.1718 45.1353 48.92C45.1353 49.6682 44.8381 50.3857 44.3091 50.9147C43.78 51.4437 43.0625 51.7409 42.3143 51.7409H2.82096C2.07279 51.7409 1.35527 51.4437 0.826239 50.9147C0.297208 50.3857 0 49.6682 0 48.92C0 48.1718 0.297208 47.4543 0.826239 46.9253C1.35527 46.3962 2.07279 46.099 2.82096 46.099V6.60566C2.07279 6.60566 1.35527 6.30845 0.826239 5.77942C0.297208 5.25039 0 4.53286 0 3.7847ZM14.1048 9.42661C13.3566 9.42661 12.6391 9.72382 12.1101 10.2529C11.581 10.7819 11.2838 11.4994 11.2838 12.2476V15.0685C11.2838 15.8167 11.581 16.5342 12.1101 17.0632C12.6391 17.5923 13.3566 17.8895 14.1048 17.8895H16.9257C17.6739 17.8895 18.3914 17.5923 18.9205 17.0632C19.4495 16.5342 19.7467 15.8167 19.7467 15.0685V12.2476C19.7467 11.4994 19.4495 10.7819 18.9205 10.2529C18.3914 9.72382 17.6739 9.42661 16.9257 9.42661H14.1048ZM28.2096 9.42661C27.4614 9.42661 26.7439 9.72382 26.2148 10.2529C25.6858 10.7819 25.3886 11.4994 25.3886 12.2476V15.0685C25.3886 15.8167 25.6858 16.5342 26.2148 17.0632C26.7439 17.5923 27.4614 17.8895 28.2096 17.8895H31.0305C31.7787 17.8895 32.4962 17.5923 33.0252 17.0632C33.5543 16.5342 33.8515 15.8167 33.8515 15.0685V12.2476C33.8515 11.4994 33.5543 10.7819 33.0252 10.2529C32.4962 9.72382 31.7787 9.42661 31.0305 9.42661H28.2096ZM14.1048 20.7104C13.3566 20.7104 12.6391 21.0076 12.1101 21.5367C11.581 22.0657 11.2838 22.7832 11.2838 23.5314V26.3523C11.2838 27.1005 11.581 27.818 12.1101 28.3471C12.6391 28.8761 13.3566 29.1733 14.1048 29.1733H16.9257C17.6739 29.1733 18.3914 28.8761 18.9205 28.3471C19.4495 27.818 19.7467 27.1005 19.7467 26.3523V23.5314C19.7467 22.7832 19.4495 22.0657 18.9205 21.5367C18.3914 21.0076 17.6739 20.7104 16.9257 20.7104H14.1048ZM28.2096 20.7104C27.4614 20.7104 26.7439 21.0076 26.2148 21.5367C25.6858 22.0657 25.3886 22.7832 25.3886 23.5314V26.3523C25.3886 27.1005 25.6858 27.818 26.2148 28.3471C26.7439 28.8761 27.4614 29.1733 28.2096 29.1733H31.0305C31.7787 29.1733 32.4962 28.8761 33.0252 28.3471C33.5543 27.818 33.8515 27.1005 33.8515 26.3523V23.5314C33.8515 22.7832 33.5543 22.0657 33.0252 21.5367C32.4962 21.0076 31.7787 20.7104 31.0305 20.7104H28.2096ZM19.7467 31.9943C18.2504 31.9943 16.8153 32.5887 15.7573 33.6467C14.6992 34.7048 14.1048 36.1398 14.1048 37.6362V46.099H19.7467V37.6362H25.3886V46.099H31.0305V37.6362C31.0305 36.1398 30.4361 34.7048 29.378 33.6467C28.32 32.5887 26.8849 31.9943 25.3886 31.9943H19.7467Z" fill="black"/>
</svg>
