<svg width="14" height="12" viewBox="0 0 14 12" fill="none" xmlns="http://www.w3.org/2000/svg">
<path d="M1.765 7.7776C1.255 7.1152 1 6.7834 1 5.8C1 4.816 1.255 4.4854 1.765 3.8224C2.7832 2.5 4.4908 1 7 1C9.5092 1 11.2168 2.5 12.235 3.8224C12.745 4.486 13 4.8166 13 5.8C13 6.784 12.745 7.1146 12.235 7.7776C11.2168 9.1 9.5092 10.6 7 10.6C4.4908 10.6 2.7832 9.1 1.765 7.7776Z" stroke="#A7A7A7" stroke-width="0.9"/>
<path d="M8.80001 5.8C8.80001 6.27739 8.61037 6.73523 8.2728 7.07279C7.93524 7.41036 7.4774 7.6 7.00001 7.6C6.52262 7.6 6.06479 7.41036 5.72722 7.07279C5.38965 6.73523 5.20001 6.27739 5.20001 5.8C5.20001 5.32261 5.38965 4.86477 5.72722 4.52721C6.06479 4.18964 6.52262 4 7.00001 4C7.4774 4 7.93524 4.18964 8.2728 4.52721C8.61037 4.86477 8.80001 5.32261 8.80001 5.8Z" stroke="#A7A7A7" stroke-width="0.9"/>
<line x1="12.2676" y1="1.29732" x2="2.26759" y2="10.2973" stroke="#A7A7A7" stroke-width="0.8"/>
</svg>
