<svg width="25" height="25" viewBox="0 0 25 25" fill="none" xmlns="http://www.w3.org/2000/svg">
<path d="M23.2198 21.1449V13.2076C23.2198 12.568 23.0897 11.9351 22.8373 11.3473C22.585 10.7596 22.2158 10.2294 21.7521 9.78884L14.2344 2.64838C13.7962 2.23211 13.2149 2 12.6105 2C12.0061 2 11.4248 2.23211 10.9866 2.64838L3.4677 9.78884C3.00399 10.2294 2.63475 10.7596 2.38243 11.3473C2.13012 11.9351 2 12.568 2 13.2076V21.1449C2 21.7703 2.24841 22.37 2.69057 22.8121C3.13273 23.2543 3.73244 23.5027 4.35775 23.5027H20.862C21.4873 23.5027 22.087 23.2543 22.5292 22.8121C22.9714 22.37 23.2198 21.7703 23.2198 21.1449Z" fill="#201A23" stroke="#201A23" stroke-width="2.35775" stroke-linecap="round" stroke-linejoin="round"/>
</svg>
