<svg width="16" height="16" viewBox="0 0 16 16" fill="none" xmlns="http://www.w3.org/2000/svg">
<path d="M7.64665 0.972046C4.93555 0.977245 3.51687 1.04335 2.60921 1.95101C1.63025 2.92997 1.63025 4.50538 1.63025 7.65693C1.63025 10.8085 1.63025 12.3839 2.60921 13.3629C3.58818 14.3418 5.16432 14.3418 8.31513 14.3418C11.4659 14.3418 13.0421 14.3418 14.0218 13.3629C14.928 12.4559 14.9948 11.0358 15 8.32542" stroke="#6A0DAD" stroke-width="1.48553" stroke-linecap="round" stroke-linejoin="round"/>
<path d="M14.9999 3.21891L14.2571 3.21742C11.4814 3.21 10.094 3.20628 9.1187 3.9082C8.79411 4.14068 8.50963 4.42442 8.27566 4.74752C7.57227 5.72277 7.57227 7.11026 7.57227 9.88523M14.9999 3.21891C15.0016 3.08997 14.9552 2.96502 14.8699 2.86832C14.3017 2.19538 12.8244 0.972046 12.8244 0.972046M14.9999 3.21891C14.9931 3.3349 14.9476 3.44525 14.8707 3.53236C14.3017 4.2053 12.8236 5.42864 12.8236 5.42864" stroke="#6A0DAD" stroke-width="1.48553" stroke-linecap="round" stroke-linejoin="round"/>
</svg>
