<svg width="21" height="21" viewBox="0 0 21 21" fill="none" xmlns="http://www.w3.org/2000/svg">
<path d="M8.0254 12.9754L12.9753 8.02549M6.16865 9.88137L4.9314 11.1186C4.60639 11.4436 4.34857 11.8295 4.17268 12.2541C3.99678 12.6788 3.90625 13.1339 3.90625 13.5936C3.90625 14.0532 3.99678 14.5083 4.17268 14.933C4.34857 15.3576 4.60639 15.7435 4.9314 16.0685C5.25642 16.3935 5.64226 16.6513 6.06691 16.8272C6.49156 17.0031 6.9467 17.0936 7.40634 17.0936C7.86598 17.0936 8.32112 17.0031 8.74577 16.8272C9.17042 16.6513 9.55626 16.3935 9.88128 16.0685L11.1168 14.8312M9.8804 6.16874L11.1177 4.93149C11.4427 4.60648 11.8285 4.34867 12.2532 4.17277C12.6778 3.99687 13.133 3.90634 13.5926 3.90634C14.0522 3.90634 14.5074 3.99687 14.932 4.17277C15.3567 4.34867 15.7425 4.60648 16.0675 4.93149C16.3925 5.25651 16.6504 5.64235 16.8263 6.06701C17.0021 6.49166 17.0927 6.94679 17.0927 7.40643C17.0927 7.86607 17.0021 8.32121 16.8263 8.74586C16.6504 9.17051 16.3925 9.55636 16.0675 9.88137L14.8303 11.1186" stroke="#6A0DAD" stroke-width="1.75" stroke-linecap="round" stroke-linejoin="round"/>
</svg>
