<svg width="21" height="24" viewBox="0 0 21 24" fill="none" xmlns="http://www.w3.org/2000/svg">
<path d="M19.7068 16.4461C18.3996 14.8462 17.4767 14.0317 17.4767 9.62076C17.4767 5.58145 15.414 4.14236 13.7163 3.44344C13.4908 3.35079 13.2786 3.13801 13.2098 2.90639C12.9121 1.89287 12.0772 1 10.9675 1C9.85775 1 9.0224 1.89338 8.72766 2.90741C8.65894 3.14157 8.44667 3.35079 8.22116 3.44344C6.52144 4.14338 4.46081 5.57738 4.46081 9.62076C4.45826 14.0317 3.53535 14.8462 2.22811 16.4461C1.68649 17.1089 2.16092 18.1041 3.10826 18.1041H18.8318C19.774 18.1041 20.2454 17.1058 19.7068 16.4461ZM14.2254 18.1041V18.9186C14.2254 19.7826 13.8822 20.6113 13.2712 21.2222C12.6602 21.8332 11.8315 22.1765 10.9675 22.1765C10.1034 22.1765 9.27476 21.8332 8.66378 21.2222C8.05281 20.6113 7.70956 19.7826 7.70956 18.9186V18.1041" fill="black"/>
<path d="M14.2254 18.1041V18.9186C14.2254 19.7826 13.8822 20.6113 13.2712 21.2222C12.6602 21.8332 11.8315 22.1765 10.9675 22.1765C10.1034 22.1765 9.27476 21.8332 8.66378 21.2222C8.05281 20.6113 7.70956 19.7826 7.70956 18.9186V18.1041M19.7068 16.4461C18.3996 14.8462 17.4767 14.0317 17.4767 9.62076C17.4767 5.58145 15.414 4.14236 13.7163 3.44344C13.4908 3.35079 13.2786 3.13801 13.2098 2.90639C12.9121 1.89287 12.0772 1 10.9675 1C9.85775 1 9.0224 1.89338 8.72766 2.90741C8.65894 3.14157 8.44667 3.35079 8.22116 3.44344C6.52144 4.14338 4.46081 5.57738 4.46081 9.62076C4.45826 14.0317 3.53535 14.8462 2.22811 16.4461C1.68649 17.1089 2.16092 18.1041 3.10826 18.1041H18.8318C19.774 18.1041 20.2454 17.1058 19.7068 16.4461Z" stroke="black" stroke-width="2" stroke-linecap="round" stroke-linejoin="round"/>
</svg>
