<svg width="24" height="24" viewBox="0 0 24 24" fill="none" xmlns="http://www.w3.org/2000/svg">
<path fill-rule="evenodd" clip-rule="evenodd" d="M12 2.4C10.3209 2.39969 8.67111 2.83979 7.21526 3.67635C5.75942 4.51292 4.54845 5.7167 3.70323 7.16754C2.85801 8.61838 2.4081 10.2655 2.39841 11.9446C2.38872 13.6237 2.81959 15.2759 3.64801 16.7364C4.20794 16.0087 4.92772 15.4195 5.75171 15.0144C6.5757 14.6092 7.48181 14.399 8.4 14.4H15.6C16.5182 14.399 17.4243 14.6092 18.2483 15.0144C19.0723 15.4195 19.7921 16.0087 20.352 16.7364C21.1804 15.2759 21.6113 13.6237 21.6016 11.9446C21.5919 10.2655 21.142 8.61838 20.2968 7.16754C19.4516 5.7167 18.2406 4.51292 16.7847 3.67635C15.3289 2.83979 13.6791 2.39969 12 2.4ZM21.5316 19.2912C21.682 19.0952 21.826 18.8944 21.9636 18.6888C23.294 16.712 24.0031 14.3827 24 12C24 5.3724 18.6276 0 12 0C5.37241 0 1.23065e-05 5.3724 1.23065e-05 12C-0.00376928 14.6361 0.864059 17.1995 2.46841 19.2912L2.46241 19.3128L2.88841 19.8084C4.01387 21.1242 5.41127 22.1803 6.98428 22.904C8.5573 23.6276 10.2685 24.0015 12 24C12.2592 24 12.5168 23.992 12.7728 23.976C14.9381 23.8395 17.0252 23.1155 18.81 21.882C19.6636 21.2931 20.4372 20.5961 21.1116 19.8084L21.5376 19.3128L21.5316 19.2912ZM12 4.8C11.0452 4.8 10.1295 5.17928 9.45442 5.85441C8.77929 6.52955 8.4 7.44522 8.4 8.4C8.4 9.35478 8.77929 10.2705 9.45442 10.9456C10.1295 11.6207 11.0452 12 12 12C12.9548 12 13.8705 11.6207 14.5456 10.9456C15.2207 10.2705 15.6 9.35478 15.6 8.4C15.6 7.44522 15.2207 6.52955 14.5456 5.85441C13.8705 5.17928 12.9548 4.8 12 4.8Z" fill="#201A23"/>
</svg>
