<svg width="75" height="92" viewBox="0 0 75 92" fill="none" xmlns="http://www.w3.org/2000/svg">
<path opacity="0.3" fill-rule="evenodd" clip-rule="evenodd" d="M37.5003 0.166748V29.9584C37.5004 31.6675 38.137 33.3152 39.286 34.5803C40.4351 35.8455 42.0141 36.6373 43.7153 36.8013L44.3753 36.8334H74.1669V82.6668C74.1677 84.9794 73.2943 87.2069 71.7218 88.9026C70.1493 90.5984 67.9939 91.6371 65.6878 91.8105L65.0003 91.8334H10.0003C7.68764 91.8342 5.46019 90.9607 3.76444 89.3882C2.06869 87.8157 1.02998 85.6604 0.856536 83.3543L0.833619 82.6668V9.33342C0.832887 7.02077 1.70631 4.79332 3.27881 3.09757C4.85131 1.40182 7.00666 0.363113 9.31278 0.189665L10.0003 0.166748H37.5003Z" fill="black"/>
<path fill-rule="evenodd" clip-rule="evenodd" d="M46.6675 0.364746C48.1496 0.679391 49.5307 1.35653 50.687 2.33558L51.2508 2.8535L71.4816 23.0843C72.5541 24.1568 73.3471 25.4814 73.7825 26.9343L73.9658 27.6677H46.6675V0.364746ZM34.2604 42.2106L24.5391 51.9318C24.1014 52.3546 23.7522 52.8604 23.512 53.4196C23.2718 53.9787 23.1454 54.5802 23.1401 55.1887C23.1348 55.7973 23.2507 56.4008 23.4812 56.9641C23.7117 57.5274 24.052 58.0391 24.4823 58.4695C24.9127 58.8998 25.4244 59.2401 25.9877 59.4706C26.5509 59.701 27.1545 59.817 27.7631 59.8117C28.3716 59.8064 28.973 59.68 29.5322 59.4398C30.0914 59.1996 30.5972 58.8504 31.02 58.4127L32.9175 56.5152V68.9177C32.9175 70.1332 33.4003 71.299 34.2599 72.1586C35.1194 73.0181 36.2852 73.501 37.5008 73.501C38.7164 73.501 39.8822 73.0181 40.7417 72.1586C41.6012 71.299 42.0841 70.1332 42.0841 68.9177V56.5152L43.9816 58.4127C44.4044 58.8504 44.9102 59.1996 45.4694 59.4398C46.0285 59.68 46.63 59.8064 47.2385 59.8117C47.8471 59.817 48.4506 59.701 49.0139 59.4706C49.5772 59.2401 50.0889 58.8998 50.5193 58.4695C50.9496 58.0391 51.2899 57.5274 51.5204 56.9641C51.7508 56.4008 51.8668 55.7973 51.8615 55.1887C51.8562 54.5802 51.7298 53.9787 51.4896 53.4196C51.2494 52.8604 50.9002 52.3546 50.4625 51.9318L40.7458 42.2106C40.3201 41.7844 39.8146 41.4464 39.2582 41.2157C38.7018 40.9851 38.1054 40.8663 37.5031 40.8663C36.9008 40.8663 36.3044 40.9851 35.7479 41.2157C35.1915 41.4464 34.686 41.7844 34.2604 42.2106Z" fill="#201A23"/>
</svg>
