<svg width="40" height="40" viewBox="0 0 40 40" fill="none" xmlns="http://www.w3.org/2000/svg">
<path d="M20 25C22.7614 25 25 22.7614 25 20C25 17.2386 22.7614 15 20 15C17.2386 15 15 17.2386 15 20C15 22.7614 17.2386 25 20 25Z" stroke="#474747" stroke-width="2.5"/>
<path d="M22.9416 3.58667C22.3299 3.33334 21.5532 3.33334 19.9999 3.33334C18.4466 3.33334 17.6699 3.33334 17.0582 3.58667C16.6535 3.75419 16.2858 3.99983 15.9761 4.30954C15.6664 4.61925 15.4208 4.98697 15.2532 5.39167C15.0999 5.76334 15.0382 6.19834 15.0149 6.83C15.004 7.28655 14.8776 7.73289 14.6473 8.12726C14.417 8.52163 14.0905 8.85116 13.6982 9.085C13.2996 9.30795 12.8509 9.42612 12.3941 9.42846C11.9374 9.43079 11.4875 9.31721 11.0866 9.09834C10.5266 8.80167 10.1216 8.63834 9.7199 8.585C8.84376 8.46979 7.95773 8.70718 7.25656 9.245C6.73323 9.65 6.34323 10.3217 5.56656 11.6667C4.7899 13.0117 4.3999 13.6833 4.3149 14.3417C4.25762 14.7758 4.28643 15.2169 4.39967 15.6398C4.51292 16.0628 4.70838 16.4593 4.9749 16.8067C5.22156 17.1267 5.56656 17.395 6.10156 17.7317C6.8899 18.2267 7.39656 19.07 7.39656 20C7.39656 20.93 6.8899 21.7733 6.10156 22.2667C5.56656 22.605 5.2199 22.8733 4.9749 23.1933C4.70838 23.5407 4.51292 23.9372 4.39967 24.3602C4.28643 24.7831 4.25762 25.2242 4.3149 25.6583C4.40156 26.315 4.7899 26.9883 5.5649 28.3333C6.34323 29.6783 6.73156 30.35 7.25656 30.755C7.60396 31.0215 8.00045 31.217 8.42341 31.3302C8.84636 31.4435 9.28748 31.4723 9.72156 31.415C10.1216 31.3617 10.5266 31.1983 11.0866 30.9017C11.4875 30.6828 11.9374 30.5692 12.3941 30.5715C12.8509 30.5739 13.2996 30.6921 13.6982 30.915C14.5032 31.3817 14.9816 32.24 15.0149 33.17C15.0382 33.8033 15.0982 34.2367 15.2532 34.6083C15.4208 35.013 15.6664 35.3807 15.9761 35.6905C16.2858 36.0002 16.6535 36.2458 17.0582 36.4133C17.6699 36.6667 18.4466 36.6667 19.9999 36.6667C21.5532 36.6667 22.3299 36.6667 22.9416 36.4133C23.3463 36.2458 23.714 36.0002 24.0237 35.6905C24.3334 35.3807 24.579 35.013 24.7466 34.6083C24.8999 34.2367 24.9616 33.8033 24.9849 33.17C25.0182 32.24 25.4966 31.38 26.3016 30.915C26.7002 30.6921 27.1489 30.5739 27.6057 30.5715C28.0624 30.5692 28.5123 30.6828 28.9132 30.9017C29.4732 31.1983 29.8782 31.3617 30.2782 31.415C30.7123 31.4723 31.1534 31.4435 31.5764 31.3302C31.9993 31.217 32.3958 31.0215 32.7432 30.755C33.2682 30.3517 33.6566 29.6783 34.4332 28.3333C35.2099 26.9883 35.5999 26.3167 35.6849 25.6583C35.7422 25.2242 35.7134 24.7831 35.6001 24.3602C35.4869 23.9372 35.2914 23.5407 35.0249 23.1933C34.7782 22.8733 34.4332 22.605 33.8982 22.2683C33.5081 22.0307 33.1847 21.6979 32.9582 21.3012C32.7317 20.9045 32.6096 20.4568 32.6032 20C32.6032 19.07 33.1099 18.2267 33.8982 17.7333C34.4332 17.395 34.7799 17.1267 35.0249 16.8067C35.2914 16.4593 35.4869 16.0628 35.6001 15.6398C35.7134 15.2169 35.7422 14.7758 35.6849 14.3417C35.5982 13.685 35.2099 13.0117 34.4349 11.6667C33.6566 10.3217 33.2682 9.65 32.7432 9.245C32.3958 8.97849 31.9993 8.78302 31.5764 8.66978C31.1534 8.55654 30.7123 8.52773 30.2782 8.585C29.8782 8.63834 29.4732 8.80167 28.9116 9.09834C28.5109 9.31691 28.0613 9.43033 27.6048 9.428C27.1484 9.42566 26.7 9.30766 26.3016 9.085C25.9093 8.85116 25.5828 8.52163 25.3525 8.12726C25.1222 7.73289 24.9957 7.28655 24.9849 6.83C24.9616 6.19667 24.9016 5.76334 24.7466 5.39167C24.579 4.98697 24.3334 4.61925 24.0237 4.30954C23.714 3.99983 23.3463 3.75419 22.9416 3.58667Z" stroke="#474747" stroke-width="2.5"/>
</svg>
